<svg xmlns="http://www.w3.org/2000/svg" viewBox="0 0 480 280">
  <defs>
    <linearGradient id="bg" x1="0%" y1="0%" x2="100%" y2="100%">
      <stop offset="0%" stop-color="#F5FBFF" />
      <stop offset="100%" stop-color="#E2F4FF" />
    </linearGradient>
    <filter id="shadow" x="-10%" y="-10%" width="120%" height="130%">
      <feDropShadow dx="0" dy="10" stdDeviation="10" flood-color="#7A94AA" flood-opacity="0.14" />
    </filter>
  </defs>
  <rect width="480" height="280" rx="28" fill="url(#bg)" />
  <circle cx="420" cy="54" r="42" fill="#D8EEFF" opacity="0.72" />
  <circle cx="56" cy="36" r="26" fill="#E7F5FF" opacity="0.9" />
  <rect x="38" y="26" width="404" height="228" rx="28" fill="#FFFFFF" filter="url(#shadow)" />
  <rect x="38" y="26" width="404" height="52" rx="28" fill="#1B8EF2" />
  <rect x="54" y="44" width="84" height="20" rx="10" fill="rgba(255,255,255,0.20)" />
  <text x="96" y="58" text-anchor="middle" font-size="12" fill="#FFFFFF" font-weight="700">图表分析</text>
  <text x="64" y="112" font-size="24" fill="#18334F" font-weight="800">三盒粉笔数量分别是32支、28支、35支。哪一盒粉笔最多？</text>
  <text x="64" y="70" font-size="24" fill="#FFFFFF" font-weight="800">二年级 数学</text>
  
    <rect x="64" y="86" width="352" height="116" rx="24" fill="#FFFFFF" stroke="#C9E2F8" />
    <rect x="84" y="108" width="312" height="72" rx="18" fill="#EAF4FF" />
    <text x="88" y="104" font-size="20" fill="#18334F" font-weight="700"><tspan x="88" y="104">三盒粉笔数量分别是32支、28支</tspan><tspan x="88" y="132">、35支。哪一盒粉笔最多？</tspan></text>
  
  <rect x="56" y="218" width="368" height="24" rx="12" fill="#E7F5FF" />
  <text x="68" y="238" font-size="14" fill="#53718F" font-weight="600"><tspan x="68" y="238">观察数据，再判断答案</tspan></text>
</svg>