<svg xmlns="http://www.w3.org/2000/svg" viewBox="0 0 480 280">
  <rect width="480" height="280" rx="28" fill="#f8fbff"/>
  <g>
    <circle cx="52" cy="116" r="20" fill="#ffd166"/><rect x="38" y="140" width="28" height="54" rx="12" fill="#8ecae6"/>
    <circle cx="106" cy="116" r="20" fill="#ffd166"/><rect x="92" y="140" width="28" height="54" rx="12" fill="#8ecae6"/>
    <circle cx="160" cy="116" r="20" fill="#ffd166"/><rect x="146" y="140" width="28" height="54" rx="12" fill="#8ecae6"/>
    <circle cx="214" cy="116" r="20" fill="#ffd166"/><rect x="200" y="140" width="28" height="54" rx="12" fill="#8ecae6"/>
    <circle cx="268" cy="116" r="20" fill="#ffafcc"/><rect x="254" y="140" width="28" height="54" rx="12" fill="#cdb4db"/>
    <circle cx="322" cy="116" r="20" fill="#ffd166"/><rect x="308" y="140" width="28" height="54" rx="12" fill="#8ecae6"/>
    <circle cx="376" cy="116" r="20" fill="#ffd166"/><rect x="362" y="140" width="28" height="54" rx="12" fill="#8ecae6"/>
    <circle cx="430" cy="116" r="20" fill="#ffd166"/><rect x="416" y="140" width="28" height="54" rx="12" fill="#8ecae6"/>
  </g>
  <text x="268" y="224" text-anchor="middle" font-size="24" font-family="Arial" font-weight="700" fill="#24324a">小冬 第5</text>
</svg>
