<svg xmlns="http://www.w3.org/2000/svg" viewBox="0 0 480 280">
  <defs>
    <linearGradient id="bg" x1="0%" y1="0%" x2="100%" y2="100%">
      <stop offset="0%" stop-color="#FFF8F2" />
      <stop offset="100%" stop-color="#FCEBD8" />
    </linearGradient>
    <filter id="shadow" x="-10%" y="-10%" width="120%" height="130%">
      <feDropShadow dx="0" dy="10" stdDeviation="10" flood-color="#7A94AA" flood-opacity="0.14" />
    </filter>
  </defs>
  <rect width="480" height="280" rx="28" fill="url(#bg)" />
  <circle cx="420" cy="54" r="42" fill="#FCE6D2" opacity="0.72" />
  <circle cx="56" cy="36" r="26" fill="#FFF1E3" opacity="0.9" />
  <rect x="38" y="26" width="404" height="228" rx="28" fill="#FFFDFB" filter="url(#shadow)" />
  <rect x="38" y="26" width="404" height="52" rx="28" fill="#E5823A" />
  <rect x="54" y="44" width="84" height="20" rx="10" fill="rgba(255,255,255,0.20)" />
  <text x="96" y="58" text-anchor="middle" font-size="12" fill="#FFFFFF" font-weight="700">图表阅读</text>
  <text x="64" y="112" font-size="24" fill="#5A3520" font-weight="800">课程表写着</text>
  <text x="64" y="70" font-size="24" fill="#FFFFFF" font-weight="800">三年级 语文</text>
  
      <rect x="62" y="86" width="376" height="42" rx="16" fill="#FFFDFB" stroke="#F1D5BF" />
      <circle cx="84" cy="107" r="10" fill="#FFF1E3" stroke="#F1D5BF" />
      <text x="84" y="112" text-anchor="middle" font-size="12" fill="#CB6A28" font-weight="700">1</text>
      <text x="98" y="106" font-size="16" fill="#5A3520" font-weight="600"><tspan x="98" y="106">第一节语文</tspan></text>
      
    
      <rect x="62" y="138" width="376" height="42" rx="16" fill="#FFFDFB" stroke="#F1D5BF" />
      <circle cx="84" cy="159" r="10" fill="#FFF1E3" stroke="#F1D5BF" />
      <text x="84" y="164" text-anchor="middle" font-size="12" fill="#CB6A28" font-weight="700">2</text>
      <text x="98" y="158" font-size="16" fill="#5A3520" font-weight="600"><tspan x="98" y="158">第二节数学</tspan></text>
      
    
      <rect x="62" y="190" width="376" height="42" rx="16" fill="#FFFDFB" stroke="#F1D5BF" />
      <circle cx="84" cy="211" r="10" fill="#FFF1E3" stroke="#F1D5BF" />
      <text x="84" y="216" text-anchor="middle" font-size="12" fill="#CB6A28" font-weight="700">3</text>
      <text x="98" y="210" font-size="16" fill="#5A3520" font-weight="600"><tspan x="98" y="210">第三节音乐</tspan></text>
      
    
  <rect x="56" y="218" width="368" height="24" rx="12" fill="#FFF1E3" />
  <text x="68" y="238" font-size="14" fill="#8A624B" font-weight="600"><tspan x="68" y="238">第三节上什么课？</tspan></text>
</svg>