<svg xmlns="http://www.w3.org/2000/svg" viewBox="0 0 480 280">
  <rect width="480" height="280" rx="28" fill="#eef7ff"/>
  <g transform="translate(72 60)">
    <path d="M92 50c0-22 18-40 40-40 16 0 30 9 37 23 4-2 9-3 14-3 18 0 33 15 33 33s-15 33-33 33H92C68 96 50 78 50 54s18-44 42-44z" fill="#cddaf0"/>
    <g fill="#5aa9e6">
      <path d="M86 112c0-8 8-18 8-18s8 10 8 18a8 8 0 1 1-16 0z"/><path d="M130 126c0-8 8-18 8-18s8 10 8 18a8 8 0 1 1-16 0z"/><path d="M174 112c0-8 8-18 8-18s8 10 8 18a8 8 0 1 1-16 0z"/>
    </g>
  </g>
  <text x="320" y="122" font-size="34" font-family="Arial" font-weight="700" fill="#42506a">今天下雨了</text>
  <circle cx="404" cy="120" r="8" fill="#24324a"/>
</svg>
