<svg xmlns="http://www.w3.org/2000/svg" viewBox="0 0 480 280">
  <rect width="480" height="280" rx="28" fill="#eef7ff"/>
  <rect x="56" y="48" width="368" height="184" rx="22" fill="#cfefff" stroke="#8ecae6" stroke-width="6"/>
  <g fill="#ffb703">
    <path d="M118 104c18 0 30 10 40 22-10 12-22 22-40 22-20 0-34-10-46-22 12-12 26-22 46-22zm40 22 20-14v28z"/>
    <path d="M188 78c18 0 30 10 40 22-10 12-22 22-40 22-20 0-34-10-46-22 12-12 26-22 46-22zm40 22 20-14v28z"/>
    <path d="M258 140c18 0 30 10 40 22-10 12-22 22-40 22-20 0-34-10-46-22 12-12 26-22 46-22zm40 22 20-14v28z"/>
    <path d="M328 92c18 0 30 10 40 22-10 12-22 22-40 22-20 0-34-10-46-22 12-12 26-22 46-22zm40 22 20-14v28z"/>
    <path d="M208 150c18 0 30 10 40 22-10 12-22 22-40 22-20 0-34-10-46-22 12-12 26-22 46-22zm40 22 20-14v28z"/>
  </g>
</svg>
