<svg xmlns="http://www.w3.org/2000/svg" viewBox="0 0 480 280">
  <rect width="480" height="280" rx="28" fill="#102542"/>
  <g fill="#ffe066">
    <path d="M70 86l7 15 17 1-13 11 4 16-15-8-15 8 4-16-13-11 17-1z"/>
    <path d="M166 86l7 15 17 1-13 11 4 16-15-8-15 8 4-16-13-11 17-1z"/>
    <path d="M214 86l7 15 17 1-13 11 4 16-15-8-15 8 4-16-13-11 17-1z"/>
    <path d="M286 86l7 15 17 1-13 11 4 16-15-8-15 8 4-16-13-11 17-1z"/>
    <path d="M334 86l7 15 17 1-13 11 4 16-15-8-15 8 4-16-13-11 17-1z"/>
    <path d="M382 86l7 15 17 1-13 11 4 16-15-8-15 8 4-16-13-11 17-1z"/>
  </g>
  <rect x="404" y="160" width="44" height="54" rx="12" fill="#fff1c9"/>
  <text x="426" y="196" text-anchor="middle" font-size="34" font-family="Arial" font-weight="700" fill="#24324a">?</text>
</svg>
